<svg width="7" height="14" viewBox="0 0 7 14" fill="none" xmlns="http://www.w3.org/2000/svg">
<path fill-rule="evenodd" clip-rule="evenodd" d="M3.5 2.20111L5.91721 4.66667L6.99237 3.57L3.5 0L0 3.57L1.08279 4.66667L3.5 2.20111ZM3.5 11.7989L1.08279 9.33333L0.00762527 10.43L3.5 14L7 10.43L5.91721 9.33333L3.5 11.7989Z" fill="white"/>
<mask id="mask0_241_423" style="mask-type:alpha" maskUnits="userSpaceOnUse" x="0" y="0" width="7" height="14">
<path fill-rule="evenodd" clip-rule="evenodd" d="M3.5 2.20111L5.91721 4.66667L6.99237 3.57L3.5 0L0 3.57L1.08279 4.66667L3.5 2.20111ZM3.5 11.7989L1.08279 9.33333L0.00762527 10.43L3.5 14L7 10.43L5.91721 9.33333L3.5 11.7989Z" fill="white"/>
</mask>
<g mask="url(#mask0_241_423)">
</g>
</svg>
