<svg width="18" height="18" viewBox="0 0 18 18" fill="none" xmlns="http://www.w3.org/2000/svg">
<path d="M9.92529 0V8.07469H18C17.5759 3.81854 14.1814 0.424081 9.92529 0V0ZM14.4088 16.199C16.384 14.7219 17.7419 12.4635 18 9.87929H10.6165L14.4088 16.199Z" fill="url(#paint0_linear_75_4697)"/>
<path d="M8.12071 8.97699V0C3.5677 0.45476 0 4.30668 0 8.97699C0 13.9523 4.04772 18 9.02301 18C10.3514 17.9983 11.6628 17.7011 12.8623 17.1302C12.8623 17.1302 8.12251 9.08617 8.12161 8.9815C8.1215 8.97997 8.1212 8.97845 8.12071 8.97699V8.97699Z" fill="url(#paint1_linear_75_4697)"/>
<defs>
<linearGradient id="paint0_linear_75_4697" x1="10.5533" y1="8.0995" x2="17.6644" y2="8.14272" gradientUnits="userSpaceOnUse">
<stop stop-color="#00A9FE"/>
<stop offset="1" stop-color="#00F4A8"/>
</linearGradient>
<linearGradient id="paint1_linear_75_4697" x1="1.0004" y1="9" x2="12.3274" y2="9.09867" gradientUnits="userSpaceOnUse">
<stop stop-color="#00A9FE"/>
<stop offset="1" stop-color="#00F4A8"/>
</linearGradient>
</defs>
</svg>
