<svg width="34" height="34" viewBox="0 0 34 34" fill="none" xmlns="http://www.w3.org/2000/svg">
<path d="M32.9375 9.5625C32.3507 9.5625 31.875 9.08677 31.875 8.5V3.05469C31.875 2.54203 31.458 2.125 30.9453 2.125H25.5C24.9132 2.125 24.4375 1.64927 24.4375 1.0625C24.4375 0.475734 24.9132 0 25.5 0H30.9453C32.6296 0 34 1.37036 34 3.05469V8.5C34 9.08677 33.5243 9.5625 32.9375 9.5625Z" fill="#0068EF"/>
<path d="M1.0625 9.5625C0.475668 9.5625 0 9.08677 0 8.5V3.05469C0 1.37036 1.37036 0 3.05469 0H8.5C9.08683 0 9.5625 0.475734 9.5625 1.0625C9.5625 1.64927 9.08683 2.125 8.5 2.125H3.05469C2.54203 2.125 2.125 2.54203 2.125 3.05469V8.5C2.125 9.08677 1.64933 9.5625 1.0625 9.5625Z" fill="#0068EF"/>
<path d="M8.5 34H3.05469C1.37036 34 0 32.6296 0 30.9453V25.5C0 24.9132 0.475668 24.4375 1.0625 24.4375C1.64933 24.4375 2.125 24.9132 2.125 25.5V30.9453C2.125 31.458 2.54203 31.875 3.05469 31.875H8.5C9.08683 31.875 9.5625 32.3507 9.5625 32.9375C9.5625 33.5243 9.08683 34 8.5 34Z" fill="#0068EF"/>
<path d="M30.9453 34H25.5C24.9132 34 24.4375 33.5243 24.4375 32.9375C24.4375 32.3507 24.9132 31.875 25.5 31.875H30.9453C31.458 31.875 31.875 31.458 31.875 30.9453V25.5C31.875 24.9132 32.3507 24.4375 32.9375 24.4375C33.5243 24.4375 34 24.9132 34 25.5V30.9453C34 32.6296 32.6296 34 30.9453 34Z" fill="#0068EF"/>
<path d="M12.8828 15.9375H7.30469C5.62036 15.9375 4.25 14.5671 4.25 12.8828V7.30469C4.25 5.62036 5.62036 4.25 7.30469 4.25H12.8828C14.5671 4.25 15.9375 5.62036 15.9375 7.30469V12.8828C15.9375 14.5671 14.5671 15.9375 12.8828 15.9375ZM7.30469 6.375C6.79203 6.375 6.375 6.79203 6.375 7.30469V12.8828C6.375 13.3955 6.79203 13.8125 7.30469 13.8125H12.8828C13.3955 13.8125 13.8125 13.3955 13.8125 12.8828V7.30469C13.8125 6.79203 13.3955 6.375 12.8828 6.375H7.30469Z" fill="#0068EF"/>
<path d="M12.8828 29.75H7.30469C5.62036 29.75 4.25 28.3796 4.25 26.6953V21.1172C4.25 19.4329 5.62036 18.0625 7.30469 18.0625H12.8828C14.5671 18.0625 15.9375 19.4329 15.9375 21.1172V26.6953C15.9375 28.3796 14.5671 29.75 12.8828 29.75ZM7.30469 20.1875C6.79203 20.1875 6.375 20.6045 6.375 21.1172V26.6953C6.375 27.208 6.79203 27.625 7.30469 27.625H12.8828C13.3955 27.625 13.8125 27.208 13.8125 26.6953V21.1172C13.8125 20.6045 13.3955 20.1875 12.8828 20.1875H7.30469Z" fill="#0068EF"/>
<path d="M26.6953 15.9375H21.1172C19.4329 15.9375 18.0625 14.5671 18.0625 12.8828V7.30469C18.0625 5.62036 19.4329 4.25 21.1172 4.25H26.6953C28.3796 4.25 29.75 5.62036 29.75 7.30469V12.8828C29.75 14.5671 28.3796 15.9375 26.6953 15.9375ZM21.1172 6.375C20.6045 6.375 20.1875 6.79203 20.1875 7.30469V12.8828C20.1875 13.3955 20.6045 13.8125 21.1172 13.8125H26.6953C27.208 13.8125 27.625 13.3955 27.625 12.8828V7.30469C27.625 6.79203 27.208 6.375 26.6953 6.375H21.1172Z" fill="#0068EF"/>
<path d="M28.0234 23.375H25.5V19.7891C25.5 18.8371 24.7255 18.0625 23.7734 18.0625H19.7891C18.837 18.0625 18.0625 18.8371 18.0625 19.7891V23.7734C18.0625 24.7254 18.837 25.5 19.7891 25.5H23.375V28.0234C23.375 28.9754 24.1495 29.75 25.1016 29.75H28.0234C28.9755 29.75 29.75 28.9754 29.75 28.0234V25.1016C29.75 24.1496 28.9755 23.375 28.0234 23.375ZM20.1875 20.1875H23.375V23.375H20.1875V20.1875ZM27.625 27.625H25.5V25.5H27.625V27.625Z" fill="#0068EF"/>
<path d="M10.625 11.6875H9.5625C8.97567 11.6875 8.5 11.2118 8.5 10.625V9.5625C8.5 8.97573 8.97567 8.5 9.5625 8.5H10.625C11.2118 8.5 11.6875 8.97573 11.6875 9.5625V10.625C11.6875 11.2118 11.2118 11.6875 10.625 11.6875Z" fill="#0068EF"/>
<path d="M24.4375 11.6875H23.375C22.7882 11.6875 22.3125 11.2118 22.3125 10.625V9.5625C22.3125 8.97573 22.7882 8.5 23.375 8.5H24.4375C25.0243 8.5 25.5 8.97573 25.5 9.5625V10.625C25.5 11.2118 25.0243 11.6875 24.4375 11.6875Z" fill="#0068EF"/>
<path d="M10.625 25.5H9.5625C8.97567 25.5 8.5 25.0243 8.5 24.4375V23.375C8.5 22.7882 8.97567 22.3125 9.5625 22.3125H10.625C11.2118 22.3125 11.6875 22.7882 11.6875 23.375V24.4375C11.6875 25.0243 11.2118 25.5 10.625 25.5Z" fill="#0068EF"/>
</svg>
