<svg width="16" height="16" viewBox="0 0 16 16" fill="none" xmlns="http://www.w3.org/2000/svg">
<path fill-rule="evenodd" clip-rule="evenodd" d="M4.07688 0C3.78233 0 3.54355 0.23878 3.54355 0.53333V1.23076H3.54288V3.27952C3.54288 3.57407 3.3041 3.81285 3.00955 3.81285H2.38742C2.09287 3.81285 1.85409 3.57407 1.85409 3.27952V1.23076H1.06666C0.47756 1.23076 0 1.70832 0 2.29742V14.9332C0 15.5223 0.477559 15.9999 1.06666 15.9999H14.523C15.1121 15.9999 15.5896 15.5223 15.5896 14.9332V2.29742C15.5896 1.70832 15.1121 1.23076 14.523 1.23076H14.3169L14.0954 0.403348C14.033 0.170115 13.8217 0.00791261 13.5802 0.00791261H12.0936C11.799 0.00791261 11.5602 0.246693 11.5602 0.541243V1.23076V3.27952C11.5602 3.57407 11.3214 3.81285 11.0269 3.81285H10.4048C10.1102 3.81285 9.87143 3.57407 9.87143 3.27952V1.23076H6.29684L6.07756 0.397587C6.0159 0.163295 5.80406 0 5.56179 0H4.07688ZM11.1875 7.19167C11.1875 6.89712 11.4263 6.65834 11.7209 6.65834H13.4111C13.7057 6.65834 13.9444 6.89712 13.9444 7.19167V8.88192C13.9444 9.17647 13.7057 9.41525 13.4111 9.41525H11.7209C11.4263 9.41525 11.1875 9.17647 11.1875 8.88192V7.19167ZM7.02825 6.65834C6.7337 6.65834 6.49492 6.89712 6.49492 7.19167V8.88192C6.49492 9.17647 6.7337 9.41525 7.02825 9.41525H8.7185C9.01305 9.41525 9.25183 9.17647 9.25183 8.88192V7.19167C9.25183 6.89712 9.01305 6.65834 8.7185 6.65834H7.02825ZM1.80231 7.19167C1.80231 6.89712 2.04109 6.65834 2.33564 6.65834H4.02589C4.32044 6.65834 4.55921 6.89712 4.55921 7.19167V8.88192C4.55921 9.17647 4.32044 9.41525 4.02589 9.41525H2.33564C2.04109 9.41525 1.80231 9.17647 1.80231 8.88192V7.19167ZM7.02825 11.543C6.7337 11.543 6.49492 11.7818 6.49492 12.0763V13.7665C6.49492 14.0611 6.7337 14.2999 7.02825 14.2999H8.7185C9.01305 14.2999 9.25183 14.0611 9.25183 13.7665V12.0763C9.25183 11.7818 9.01305 11.543 8.7185 11.543H7.02825ZM1.80231 12.0763C1.80231 11.7818 2.04109 11.543 2.33564 11.543H4.02589C4.32044 11.543 4.55921 11.7818 4.55921 12.0763V13.7665C4.55921 14.0611 4.32044 14.2999 4.02589 14.2999H2.33564C2.04109 14.2999 1.80231 14.0611 1.80231 13.7665V12.0763Z" fill="white"/>
</svg>
