<svg width="16" height="16" viewBox="0 0 16 16" fill="none" xmlns="http://www.w3.org/2000/svg">
<path fill-rule="evenodd" clip-rule="evenodd" d="M1.06666 0C0.47756 0 0 0.47756 0 1.06666V14.9332C0 15.5223 0.47756 15.9999 1.06666 15.9999H14.42C15.0091 15.9999 15.4867 15.5223 15.4867 14.9332V1.06666C15.4867 0.47756 15.0091 0 14.42 0H1.06666ZM2.58239 1.52593C2.28784 1.52593 2.04906 1.76471 2.04906 2.05926V3.74371C2.04906 4.03826 2.28784 4.27704 2.58239 4.27704H12.8279C13.1224 4.27704 13.3612 4.03826 13.3612 3.74371V2.05926C13.3612 1.76471 13.1224 1.52593 12.8279 1.52593H2.58239ZM3.7983 7.15483C3.7983 6.86028 4.03708 6.6215 4.33163 6.6215H6.02188C6.31643 6.6215 6.55521 6.86028 6.55521 7.15483V8.84507C6.55521 9.13962 6.31643 9.3784 6.02188 9.3784H4.33163C4.03708 9.3784 3.7983 9.13962 3.7983 8.84507V7.15483ZM9.38839 6.6215C9.09384 6.6215 8.85506 6.86028 8.85506 7.15483V8.84507C8.85506 9.13962 9.09384 9.3784 9.38839 9.3784H11.0786C11.3732 9.3784 11.612 9.13962 11.612 8.84507V7.15483C11.612 6.86028 11.3732 6.6215 11.0786 6.6215H9.38839ZM3.7983 11.661C3.7983 11.3664 4.03708 11.1276 4.33163 11.1276H6.02188C6.31643 11.1276 6.55521 11.3664 6.55521 11.661V13.3512C6.55521 13.6457 6.31643 13.8845 6.02188 13.8845H4.33163C4.03708 13.8845 3.7983 13.6457 3.7983 13.3512V11.661ZM9.38839 11.1276C9.09384 11.1276 8.85506 11.3664 8.85506 11.661V13.3512C8.85506 13.6457 9.09384 13.8845 9.38839 13.8845H11.0786C11.3732 13.8845 11.612 13.6457 11.612 13.3512V11.661C11.612 11.3664 11.3732 11.1276 11.0786 11.1276H9.38839Z" fill="white"/>
</svg>
