<svg width="16" height="16" viewBox="0 0 16 16" fill="none" xmlns="http://www.w3.org/2000/svg">
<path fill-rule="evenodd" clip-rule="evenodd" d="M1.09474 0C0.490132 0 0 0.490131 0 1.09474V14.3158C0 15.246 0.75405 16.0001 1.68422 16.0001H14.1197C15.0499 16.0001 15.8039 15.246 15.8039 14.3158V4.45104C15.8039 3.84643 15.3138 3.3563 14.7092 3.3563H12.7241V1.09474C12.7241 0.490132 12.234 0 11.6294 0H1.09474ZM1.95241 2.69785C1.95241 2.39554 2.19748 2.15048 2.49978 2.15048H10.2681C10.5704 2.15048 10.8155 2.39554 10.8155 2.69785V5.34728C10.8155 5.64959 10.5704 5.89465 10.2681 5.89465H2.49978C2.19748 5.89465 1.95241 5.64959 1.95241 5.34728V2.69785ZM2.49978 8.00003C2.19748 8.00003 1.95241 8.24509 1.95241 8.54739V9.31371C1.95241 9.61602 2.19748 9.86108 2.49978 9.86108H10.2681C10.5704 9.86108 10.8155 9.61602 10.8155 9.31371V8.5474C10.8155 8.24509 10.5704 8.00003 10.2681 8.00003H2.49978ZM1.95241 11.9953C1.95241 11.693 2.19748 11.448 2.49978 11.448H7.97856C8.28087 11.448 8.52593 11.693 8.52593 11.9953V12.7617C8.52593 13.064 8.28087 13.309 7.97856 13.309H2.49978C2.19748 13.309 1.95241 13.064 1.95241 12.7617V11.9953ZM13.9096 5.89465H12.0486V12.7844C12.0486 13.2983 12.4652 13.7149 12.9791 13.7149C13.493 13.7149 13.9096 13.2983 13.9096 12.7844V5.89465Z" fill="white"/>
</svg>
