<svg width="16" height="16" viewBox="0 0 16 16" fill="none" xmlns="http://www.w3.org/2000/svg">
<path fill-rule="evenodd" clip-rule="evenodd" d="M1.09472 0C0.490124 0 0 0.490123 0 1.09472V14.9051C0 15.5097 0.490123 15.9998 1.09472 15.9998H14.9051C15.5097 15.9998 15.9998 15.5097 15.9998 14.9051V1.09472C15.9998 0.490124 15.5097 0 14.9051 0H1.09472ZM3.15081 3.89685C2.84851 3.89685 2.60345 4.14191 2.60345 4.44421V12.5936C2.60345 12.8959 2.84851 13.141 3.15081 13.141H4.07711C4.37941 13.141 4.62447 12.8959 4.62447 12.5936V4.44421C4.62447 4.14191 4.37941 3.89685 4.07711 3.89685H3.15081ZM6.98938 7.17784C6.98938 6.87554 7.23445 6.63048 7.53675 6.63048H8.46305C8.76535 6.63048 9.01041 6.87554 9.01041 7.17784V12.5936C9.01041 12.8959 8.76535 13.141 8.46305 13.141H7.53675C7.23445 13.141 6.98938 12.8959 6.98938 12.5936V7.17784ZM11.9227 9.36878C11.6204 9.36878 11.3753 9.61384 11.3753 9.91614V12.5936C11.3753 12.8959 11.6204 13.141 11.9227 13.141H12.849C13.1513 13.141 13.3963 12.8959 13.3963 12.5936V9.91614C13.3963 9.61384 13.1513 9.36878 12.849 9.36878H11.9227Z" fill="white"/>
</svg>
