<svg width="15" height="16" viewBox="0 0 15 16" fill="none" xmlns="http://www.w3.org/2000/svg">
<path fill-rule="evenodd" clip-rule="evenodd" d="M6.04684 0C5.88892 0 5.75509 0.116269 5.73302 0.272645L5.54828 1.58184C2.36176 2.3727 0 5.2522 0 8.68331C0 12.7242 3.27575 15.9999 7.3166 15.9999C11.3574 15.9999 14.6332 12.7242 14.6332 8.68331C14.6332 5.25495 12.2752 2.37732 9.09258 1.58374L8.9124 0.273744C8.89083 0.116874 8.75678 0 8.59843 0H6.04684ZM6.86965 4.11121C6.57793 4.11121 6.34144 4.3477 6.34144 4.63942V9.67721H8.29176V4.63942C8.29176 4.3477 8.05527 4.11121 7.76355 4.11121H6.86965ZM11.7469 9.56949C12.0213 9.66912 12.1628 9.97237 12.063 10.2466L11.7574 11.0863C11.6576 11.3604 11.3545 11.5018 11.0804 11.402L6.34639 9.67895H8.29214V8.31476L11.7469 9.56949Z" fill="white"/>
</svg>
