<svg width="18" height="20" viewBox="0 0 18 20" fill="none" xmlns="http://www.w3.org/2000/svg">
<path fill-rule="evenodd" clip-rule="evenodd" d="M7.37046 0C7.21499 0 7.08325 0.114461 7.06152 0.268406L6.82483 1.94579C2.90516 2.91861 0 6.46062 0 10.6812C0 15.6517 4.02944 19.6812 9 19.6812C13.9706 19.6812 18 15.6517 18 10.6812C18 6.464 15.0995 2.92429 11.1846 1.94813L10.9537 0.269488C10.9325 0.115057 10.8005 0 10.6446 0H7.37046ZM8.32047 5.05711C8.03329 5.05711 7.80047 5.28993 7.80047 5.57711V11.9037H10.1995V5.57711C10.1995 5.28992 9.96672 5.05711 9.67953 5.05711H8.32047ZM14.5717 11.8156C14.8418 11.9136 14.9811 12.2122 14.8828 12.4822L14.4181 13.7589C14.3199 14.0288 14.0215 14.1679 13.7516 14.0697L7.80656 11.9059H10.2V10.2278L14.5717 11.8156Z" fill="white"/>
</svg>
