<svg width="18" height="18" viewBox="0 0 18 18" fill="none" xmlns="http://www.w3.org/2000/svg">
<path fill-rule="evenodd" clip-rule="evenodd" d="M1.04 0C0.465624 0 0 0.465625 0 1.04V16.96C0 17.5344 0.465624 18 1.04 18H16.0381C16.6125 18 17.0781 17.5344 17.0781 16.96L17.0781 15H6.89678C6.3224 15 5.85678 14.5344 5.85678 13.96V4.04C5.85678 3.46562 6.3224 3 6.89678 3H17.0781L17.0781 1.04C17.0781 0.465624 16.6125 0 16.0381 0H1.04ZM8.11981 5.84C8.11981 5.26562 8.58543 4.8 9.15981 4.8H16.4985C17.0728 4.8 17.5385 5.26562 17.5385 5.84V12.16C17.5385 12.7344 17.0728 13.2 16.4985 13.2H9.15981C8.58543 13.2 8.11981 12.7344 8.11981 12.16V5.84ZM11.002 7.45391C10.7148 7.45391 10.482 7.68672 10.482 7.97391V10.0355C10.482 10.3226 10.7148 10.5555 11.002 10.5555H12.8543C13.1415 10.5555 13.3743 10.3226 13.3743 10.0355V7.97391C13.3743 7.68672 13.1415 7.45391 12.8543 7.45391H11.002Z" fill="url(#paint0_linear_1339_6355)"/>
<defs>
<linearGradient id="paint0_linear_1339_6355" x1="1.3641" y1="9" x2="16.808" y2="9.18345" gradientUnits="userSpaceOnUse">
<stop stop-color="#00A9FE"/>
<stop offset="1" stop-color="#00F4A8"/>
</linearGradient>
</defs>
</svg>
