<svg width="16" height="16" viewBox="0 0 16 16" fill="none" xmlns="http://www.w3.org/2000/svg">
<path fill-rule="evenodd" clip-rule="evenodd" d="M1.06666 0C0.47756 0 0 0.47756 0 1.06666V14.9332C0 15.5223 0.47756 15.9999 1.06666 15.9999H14.1138C14.7029 15.9999 15.1805 15.5223 15.1805 14.9332L15.1805 13.3332H6.27265C5.68355 13.3332 5.20599 12.8557 5.20599 12.2666V3.73331C5.20599 3.14421 5.68355 2.66665 6.27265 2.66665H15.1805L15.1805 1.06666C15.1805 0.47756 14.7029 0 14.1138 0H1.06666ZM7.21756 5.3333C7.21756 4.7442 7.69512 4.26664 8.28422 4.26664H14.523C15.1121 4.26664 15.5896 4.7442 15.5896 5.3333V10.6666C15.5896 11.2557 15.1121 11.7333 14.523 11.7333H8.28422C7.69512 11.7333 7.21756 11.2557 7.21756 10.6666V5.3333ZM9.85059 6.62566C9.55604 6.62566 9.31726 6.86444 9.31726 7.15899V8.84923C9.31726 9.14378 9.55604 9.38256 9.85059 9.38256H11.3549C11.6494 9.38256 11.8882 9.14378 11.8882 8.84923V7.15899C11.8882 6.86444 11.6494 6.62566 11.3549 6.62566H9.85059Z" fill="white"/>
</svg>
