<svg width="223" height="192" viewBox="0 0 223 192" fill="none" xmlns="http://www.w3.org/2000/svg">
<path d="M0 186.318H5.48388L11.7047 189.111L16.7846 183.579H24.4472L25.9826 189.111L30.8697 183.579L36.0872 189.111L38.5888 180.733C38.5888 180.733 40.5703 180.024 41.5284 179.401C42.4864 178.777 48.3055 167.552 48.5772 167.665C48.8489 167.779 53.2082 164 53.2082 164H55.511C55.511 164 57.4985 169.675 57.8961 169.744C58.2938 169.814 63.1834 164 63.1834 164L72.4813 183.579L74.5382 174.719H77.0175L82.072 157.668L85.0087 159.3L91.7057 151.87L93.9256 154.464C93.9256 154.464 95.9237 150.709 96.3374 151.87C96.751 153.032 99.2436 155.836 99.2436 155.836L108.576 131.928L115.619 130.768L118.307 117.219L127.969 105.795L132.92 35.7452L137.676 60.6377H140.257L142.437 37.7037L145.444 30.906L147.211 40.4159H150.261L154.777 2.10424L159.558 6.65951L167.171 54.8903L169.079 76.0918L172.058 67.0018L174.093 74.603L176.881 76.0918L179.043 50.7813L183.442 67.0018L186.296 68.3672L188.499 90.9321C188.499 90.9321 190.998 74.7733 191.191 76.0918C191.383 77.4102 193.872 82.0516 193.872 82.0516L196.585 62.2439L200.984 58.1075C200.984 58.1075 203.004 36.7758 203.274 35.7452C203.544 34.7145 205.834 30.906 205.834 30.906L212.905 68.3672L215.48 62.2439L217.868 82.0516L222.009 113.443" stroke="#C11E0F" stroke-width="2"/>
</svg>
