<svg width="223" height="192" viewBox="0 0 223 192" fill="none" xmlns="http://www.w3.org/2000/svg">
<path d="M0 186.318H5.48389L11.7047 189.112L16.7846 183.58H24.4473L25.9827 189.112L30.8697 183.58L36.0872 189.112L38.5889 180.733C38.5889 180.733 40.5703 180.025 41.5284 179.401C42.4865 178.778 48.3055 167.552 48.5772 167.665C48.849 167.779 53.2083 164 53.2083 164H55.5111C55.5111 164 57.4985 169.675 57.8962 169.744C58.2939 169.814 63.1835 164 63.1835 164L72.4814 183.58L74.5382 174.72H77.0176L82.0721 157.668L85.0088 159.301L91.7058 151.871L93.9257 154.464C93.9257 154.464 95.9238 150.709 96.3375 151.871C96.7512 153.032 99.2437 155.836 99.2437 155.836L108.576 131.928L115.619 130.768L118.307 117.22L127.969 105.795L132.92 35.7452L137.676 60.6378H140.257L142.438 37.7038L145.444 30.9061L147.212 40.416H150.261L154.777 2.10424L159.559 6.65952L167.171 54.8903L169.079 76.0919L172.058 67.0018L174.093 74.6031L176.881 76.0919L179.043 50.7814L183.442 67.0018L186.296 68.3673L188.499 90.9322C188.499 90.9322 190.998 74.7734 191.191 76.0919C191.383 77.4103 193.872 82.0517 193.872 82.0517L196.586 62.244L200.984 58.1076C200.984 58.1076 203.004 36.7759 203.275 35.7452C203.545 34.7145 205.835 30.9061 205.835 30.9061L212.905 68.3673L215.48 62.244L217.868 82.0517L222.009 113.443" stroke="#C11E0F" stroke-width="2"/>
</svg>
