<svg width="12" height="12" viewBox="0 0 12 12" fill="none" xmlns="http://www.w3.org/2000/svg">
<path d="M8.86364 12H3.13636C1.407 12 0 10.593 0 8.86364V3.13636C0 1.407 1.407 0 3.13636 0H8.86364C10.593 0 12 1.407 12 3.13636V8.86364C12 10.593 10.593 12 8.86364 12ZM3.13636 2.18182C2.61 2.18182 2.18182 2.61 2.18182 3.13636V8.86364C2.18182 9.39 2.61 9.81818 3.13636 9.81818H8.86364C9.39 9.81818 9.81818 9.39 9.81818 8.86364V3.13636C9.81818 2.61 9.39 2.18182 8.86364 2.18182H3.13636Z" fill="#0068EF"/>
</svg>
