<svg width="12" height="12" viewBox="0 0 12 12" fill="none" xmlns="http://www.w3.org/2000/svg">
<path d="M10.2273 5.45455H7.63636V1.77273C7.63636 0.795273 6.84116 0 5.86364 0H1.77273C0.795205 0 0 0.795273 0 1.77273V5.86364C0 6.84109 0.795205 7.63636 1.77273 7.63636H5.45455V10.2273C5.45455 11.2047 6.24975 12 7.22727 12H10.2273C11.2048 12 12 11.2047 12 10.2273V7.22727C12 6.24982 11.2048 5.45455 10.2273 5.45455ZM2.18182 2.18182H5.45455V5.45455H2.18182V2.18182ZM9.81818 9.81818H7.63636V7.63636H9.81818V9.81818Z" fill="#0068EF"/>
</svg>
