<svg width="11" height="14" viewBox="0 0 11 14" fill="none" xmlns="http://www.w3.org/2000/svg">
<path d="M10.25 0H0.75C0.551088 0 0.360322 0.0790175 0.21967 0.21967C0.0790175 0.360322 0 0.551088 0 0.75V12.75C0 12.9489 0.0790175 13.1397 0.21967 13.2803C0.360322 13.421 0.551088 13.5 0.75 13.5H10.25C10.4489 13.5 10.6397 13.421 10.7803 13.2803C10.921 13.1397 11 12.9489 11 12.75V0.75C11 0.551088 10.921 0.360322 10.7803 0.21967C10.6397 0.0790175 10.4489 0 10.25 0ZM10 12.5H1V1H10V12.5Z" fill="white"/>
</svg>
