<svg width="135" height="135" viewBox="0 0 135 135" fill="none" xmlns="http://www.w3.org/2000/svg">
<path d="M84.375 118.125H73.125V106.875H84.375V118.125ZM73.125 78.75H61.875V106.875H73.125V78.75ZM118.125 67.5H106.875V90H118.125V67.5ZM106.875 56.25H95.625V67.5H106.875V56.25ZM39.375 67.5H28.125V78.75H39.375V67.5ZM28.125 56.25H16.875V67.5H28.125V56.25ZM67.5 28.125H78.75V16.875H67.5V28.125ZM25.3125 25.3125V42.1875H42.1875V25.3125H25.3125ZM50.625 50.625H16.875V16.875H50.625V50.625ZM25.3125 92.8125V109.688H42.1875V92.8125H25.3125ZM50.625 118.125H16.875V84.375H50.625V118.125ZM92.8125 25.3125V42.1875H109.688V25.3125H92.8125ZM118.125 50.625H84.375V16.875H118.125V50.625ZM106.875 106.875V90H84.375V101.25H95.625V118.125H118.125V106.875H106.875ZM95.625 67.5H73.125V78.75H95.625V67.5ZM73.125 56.25H39.375V67.5H50.625V78.75H61.875V67.5H73.125V56.25ZM78.75 50.625V39.375H67.5V28.125H56.25V50.625H78.75ZM37.9688 29.5312H29.5312V37.9688H37.9688V29.5312ZM37.9688 97.0312H29.5312V105.469H37.9688V97.0312ZM105.469 29.5312H97.0312V37.9688H105.469V29.5312Z" fill="white"/>
</svg>
