<svg width="18" height="18" viewBox="0 0 18 18" fill="none" xmlns="http://www.w3.org/2000/svg">
<path d="M1.47578e-06 2.07692C1.47578e-06 1.52609 0.21882 0.997815 0.608318 0.608317C0.997817 0.218818 1.52609 0 2.07692 0H13.6731C14.2698 0 14.8421 0.237053 15.2641 0.65901C15.686 1.08097 15.9231 1.65326 15.9231 2.25V2.94646C17.1332 3.37431 18 4.52838 18 5.88462V14.8846C18 15.7109 17.6718 16.5033 17.0875 17.0875C16.5033 17.6718 15.7109 18 14.8846 18H3.11539C2.28913 18 1.49672 17.6718 0.912476 17.0875C0.328229 16.5033 1.47578e-06 15.7109 1.47578e-06 14.8846V2.25H0.00692455C0.00224271 2.19243 -6.69293e-05 2.13469 1.47578e-06 2.07692V2.07692ZM14.5385 2.25C14.5385 1.77231 14.1508 1.38462 13.6731 1.38462H2.07692C1.89331 1.38462 1.71722 1.45755 1.58739 1.58739C1.45756 1.71722 1.38462 1.89331 1.38462 2.07692C1.38462 2.26053 1.45756 2.43663 1.58739 2.56646C1.71722 2.69629 1.89331 2.76923 2.07692 2.76923H14.5385V2.25ZM12.4615 10.3846C12.2779 10.3846 12.1018 10.4576 11.972 10.5874C11.8422 10.7172 11.7692 10.8933 11.7692 11.0769C11.7692 11.2605 11.8422 11.4366 11.972 11.5665C12.1018 11.6963 12.2779 11.7692 12.4615 11.7692H14.5385C14.7221 11.7692 14.8982 11.6963 15.028 11.5665C15.1578 11.4366 15.2308 11.2605 15.2308 11.0769C15.2308 10.8933 15.1578 10.7172 15.028 10.5874C14.8982 10.4576 14.7221 10.3846 14.5385 10.3846H12.4615Z" fill="white"/>
</svg>
