<svg width="160" height="249" viewBox="0 0 160 249" fill="none" xmlns="http://www.w3.org/2000/svg">
<path opacity="0.2" d="M50.3684 151.234C50.3684 164.041 57.87 170.105 67.0968 164.773C76.3497 159.441 83.8253 144.725 83.8253 131.917C83.8253 119.11 76.3236 113.046 67.0968 118.378C57.8439 123.71 50.3422 138.426 50.3684 151.234Z" fill="url(#paint0_linear_294_1369)"/>
<path opacity="0.4" fill-rule="evenodd" clip-rule="evenodd" d="M75.1213 170.001C65.8684 175.333 58.3928 169.269 58.3667 156.461C58.3667 143.653 65.8684 128.938 75.0952 123.605C84.3481 118.273 91.8236 124.337 91.8236 137.145C91.8498 149.953 84.3481 164.669 75.1213 170.001ZM77.9965 133.381L74.7815 135.237V138.347C74.4679 138.556 74.1542 138.766 73.8406 138.975C73.0303 139.524 72.2723 140.099 71.5665 140.674V160.852C72.4552 160.617 73.2917 160.277 74.1019 159.859C74.3372 159.755 74.5463 159.65 74.7815 159.519V162.63L77.9965 160.774V157.637C79.5648 156.54 80.7933 155.311 81.682 153.952C82.8321 152.174 83.4071 150.214 83.4071 148.018C83.4071 146.947 83.2242 146.058 82.8844 145.405C82.5446 144.751 81.8911 144.438 80.9502 144.49C82.1002 142.869 82.6753 141.223 82.6753 139.55C82.6753 138.452 82.5184 137.615 82.1786 137.067C81.865 136.491 81.4206 136.126 80.8456 136.021C80.2706 135.916 79.5648 135.969 78.7807 136.256C78.5454 136.335 78.2841 136.439 78.0227 136.544L77.9965 133.381Z" fill="white"/>
<path opacity="0.4" d="M76.6373 145.771L74.9906 146.712V142.19C75.252 142.007 75.5395 141.798 75.8793 141.615C76.2191 141.406 76.5328 141.223 76.8203 141.04C77.709 140.517 78.3886 140.308 78.8591 140.387C79.3295 140.465 79.5387 140.909 79.5387 141.746C79.5387 142.556 79.3034 143.288 78.8591 143.941C78.4147 144.569 77.6828 145.17 76.6373 145.771Z" fill="white"/>
<path opacity="0.4" d="M74.9906 155.625V150.241L77.1078 149.012C78.0749 148.463 78.8068 148.228 79.3295 148.359C79.8523 148.463 80.1137 148.986 80.1137 149.953C80.1137 151.025 79.8 151.966 79.1727 152.724C78.5454 153.482 77.7351 154.161 76.7157 154.736C76.3759 154.945 76.0623 155.102 75.7747 155.259C75.5134 155.39 75.252 155.52 74.9906 155.625Z" fill="white"/>
<path opacity="0.3" d="M97.8615 0.416156C96.2148 1.35713 94.9079 3.6573 94.9079 5.53925V56.0383L79.9307 64.6901V116.784C79.9307 118.666 81.2637 119.424 82.8843 118.483C84.531 117.542 85.8379 115.241 85.8379 113.359V68.088L100.815 59.4363V2.089C100.841 0.233188 99.5082 -0.550958 97.8615 0.416156Z" fill="url(#paint1_linear_294_1369)"/>
<path opacity="0.3" d="M89.7063 219.768C88.0596 220.709 86.7527 219.951 86.7527 218.069V180.221L71.7494 188.873V164.094C71.7494 162.212 73.0824 159.911 74.703 158.97C76.3497 158.029 77.6566 158.787 77.6566 160.669V178.626L92.6338 169.975V214.645C92.66 216.527 91.3269 218.827 89.7063 219.768Z" fill="url(#paint2_linear_294_1369)"/>
<path opacity="0.3" d="M66.6786 37.4538C65.0319 38.3948 63.725 40.695 63.725 42.5769V128.493C63.725 130.375 65.058 131.133 66.6786 130.192C68.3253 129.251 69.6322 126.951 69.6322 125.069V39.1528C69.6322 37.2709 68.2992 36.5129 66.6786 37.4538Z" fill="url(#paint3_linear_294_1369)"/>
<path fill-rule="evenodd" clip-rule="evenodd" d="M83.4594 215.429C83.4594 220.604 86.4914 223.061 90.2292 220.892C93.9669 218.749 96.999 212.789 96.999 207.614C96.999 202.438 93.9669 199.981 90.2292 202.151C86.4914 204.32 83.4594 210.254 83.4594 215.429Z" fill="#F2C94C"/>
<path opacity="0.3" d="M33.7183 80.5559C35.365 79.6149 36.6719 80.3729 36.6719 82.2549V107.766L51.6491 99.114V130.454C51.6491 132.336 50.316 134.636 48.6955 135.577C47.0488 136.518 45.7419 135.76 45.7419 133.878V109.36L30.7646 118.012V85.679C30.7646 83.797 32.0716 81.4969 33.7183 80.5559Z" fill="url(#paint4_linear_294_1369)"/>
<path fill-rule="evenodd" clip-rule="evenodd" d="M27.0792 89.5475C27.0792 94.6706 30.0851 97.0753 33.7706 94.9581C37.4561 92.8148 40.462 86.9598 40.462 81.8367C40.462 76.7136 37.4561 74.3089 33.7706 76.4261C30.0851 78.5433 27.0792 84.4505 27.0792 89.5475Z" fill="#F2994A"/>
<path opacity="0.3" d="M5.04468 220.029C5.04468 218.147 6.37773 215.847 7.9983 214.906L31.2613 201.471V181.998L54.3675 168.668C56.0142 167.727 57.3211 168.485 57.3211 170.367C57.3211 172.249 55.9881 174.549 54.3675 175.49L37.1686 185.422V204.895L8.02444 221.754C6.37773 222.695 5.04468 221.911 5.04468 220.029Z" fill="url(#paint5_linear_294_1369)"/>
<path opacity="0.3" d="M61.2157 248.39C62.8624 247.449 64.1693 245.148 64.1693 243.266V181.319C64.1693 179.437 62.8363 178.679 61.2157 179.62C59.569 180.561 58.2621 182.861 58.2621 184.743V246.691C58.2621 248.546 59.5951 249.331 61.2157 248.39Z" fill="url(#paint6_linear_294_1369)"/>
<path fill-rule="evenodd" clip-rule="evenodd" d="M1.46375 222.277C1.46375 227.453 4.49578 229.91 8.23355 227.74C11.9713 225.597 15.0033 219.637 15.0033 214.462C15.0033 209.287 11.9713 206.83 8.23355 208.999C4.49578 211.169 1.46375 217.102 1.46375 222.277Z" fill="#F2994A"/>
<path opacity="0.3" d="M146.243 118.326L103.69 142.896V221.729L146.243 197.159V118.326Z" fill="url(#paint7_linear_294_1369)"/>
<path opacity="0.15" d="M139.5 168.433L114.146 183.07V186.18L139.5 171.543V168.433Z" fill="white"/>
<path opacity="0.15" d="M136.86 176.117L116.759 187.723V190.833L136.86 179.228V176.117Z" fill="white"/>
<path fill-rule="evenodd" clip-rule="evenodd" d="M129.985 190.128L159.6 173.033V181.842L129.985 198.936V190.128Z" fill="#F2C94C"/>
<path opacity="0.2" d="M115.74 150.763L122.353 155.991L126.797 150.293L132.599 155.311L134.899 153.638L126.352 146.45L122.013 152.148L117.23 148.594L115.74 150.763Z" fill="white"/>
<path fill-rule="evenodd" clip-rule="evenodd" d="M110.774 150.632C110.774 153.586 112.499 154.971 114.616 153.743C116.733 152.514 118.458 149.143 118.458 146.189C118.458 143.235 116.733 141.85 114.616 143.079C112.499 144.307 110.774 147.679 110.774 150.632Z" fill="#F2C94C"/>
<path fill-rule="evenodd" clip-rule="evenodd" d="M130.587 156.331C130.587 159.284 132.312 160.67 134.429 159.441C136.546 158.213 138.271 154.841 138.271 151.887C138.271 148.934 136.546 147.548 134.429 148.777C132.312 150.005 130.587 153.377 130.587 156.331Z" fill="#F2C94C"/>
<path opacity="0.2" d="M0 169.871L40.462 146.503V167.57L0 190.938V169.871Z" fill="url(#paint8_linear_294_1369)"/>
<path opacity="0.15" d="M30.1112 157.559L17.9308 164.59V167.126L30.1112 160.094V157.559Z" fill="white"/>
<path opacity="0.15" d="M30.0851 162.656L4.15601 177.607V180.169L30.0851 165.218V162.656Z" fill="white"/>
<path fill-rule="evenodd" clip-rule="evenodd" d="M32.2284 158.317C32.2284 160.042 33.2478 160.879 34.5286 160.147C35.8093 159.415 36.8287 157.402 36.8287 155.677C36.8287 153.952 35.8093 153.116 34.5286 153.848C33.2478 154.579 32.2284 156.592 32.2284 158.317Z" fill="#F2994A"/>
<path opacity="0.2" d="M103.821 105.439L144.283 82.0718V103.139L103.821 126.507V105.439Z" fill="url(#paint9_linear_294_1369)"/>
<path opacity="0.15" d="M133.932 93.1284L121.752 100.16V102.695L133.932 95.6638V93.1284Z" fill="white"/>
<path opacity="0.15" d="M133.906 98.2256L107.977 113.177V115.738L133.906 100.787V98.2256Z" fill="white"/>
<path fill-rule="evenodd" clip-rule="evenodd" d="M136.049 93.8865C136.049 95.6116 137.069 96.4481 138.35 95.7162C139.63 94.9843 140.65 92.9717 140.65 91.2466C140.65 89.5214 139.63 88.685 138.35 89.4169C137.095 90.1488 136.049 92.1353 136.049 93.8865Z" fill="#F2994A"/>
<defs>
<linearGradient id="paint0_linear_294_1369" x1="49.3972" y1="128.11" x2="65.1833" y2="167.935" gradientUnits="userSpaceOnUse">
<stop stop-color="white"/>
<stop offset="1" stop-color="white" stop-opacity="0.01"/>
</linearGradient>
<linearGradient id="paint1_linear_294_1369" x1="61.6473" y1="143.037" x2="108.377" y2="145.536" gradientUnits="userSpaceOnUse">
<stop stop-color="white"/>
<stop offset="1" stop-color="white" stop-opacity="0.01"/>
</linearGradient>
<linearGradient id="paint2_linear_294_1369" x1="107.155" y1="170.878" x2="72.0809" y2="163.895" gradientUnits="userSpaceOnUse">
<stop stop-color="white"/>
<stop offset="1" stop-color="white" stop-opacity="0.01"/>
</linearGradient>
<linearGradient id="paint3_linear_294_1369" x1="46.0455" y1="346.169" x2="83.6905" y2="346.429" gradientUnits="userSpaceOnUse">
<stop stop-color="white"/>
<stop offset="1" stop-color="white" stop-opacity="0.01"/>
</linearGradient>
<linearGradient id="paint4_linear_294_1369" x1="6.37603" y1="115.48" x2="53.9057" y2="127.003" gradientUnits="userSpaceOnUse">
<stop stop-color="white"/>
<stop offset="1" stop-color="white" stop-opacity="0.01"/>
</linearGradient>
<linearGradient id="paint5_linear_294_1369" x1="-4.67793" y1="225.661" x2="54.3977" y2="225.655" gradientUnits="userSpaceOnUse">
<stop stop-color="white"/>
<stop offset="1" stop-color="white" stop-opacity="0.01"/>
</linearGradient>
<linearGradient id="paint6_linear_294_1369" x1="76.6145" y1="78.9885" x2="49.1712" y2="78.6462" gradientUnits="userSpaceOnUse">
<stop stop-color="white"/>
<stop offset="1" stop-color="white" stop-opacity="0.01"/>
</linearGradient>
<linearGradient id="paint7_linear_294_1369" x1="85.6745" y1="171.154" x2="138.138" y2="186.547" gradientUnits="userSpaceOnUse">
<stop stop-color="white"/>
<stop offset="1" stop-color="white" stop-opacity="0.01"/>
</linearGradient>
<linearGradient id="paint8_linear_294_1369" x1="8.45793" y1="165.833" x2="18.8514" y2="180.764" gradientUnits="userSpaceOnUse">
<stop stop-color="white"/>
<stop offset="1" stop-color="white" stop-opacity="0.01"/>
</linearGradient>
<linearGradient id="paint9_linear_294_1369" x1="112.288" y1="101.395" x2="122.681" y2="116.326" gradientUnits="userSpaceOnUse">
<stop stop-color="white"/>
<stop offset="1" stop-color="white" stop-opacity="0.01"/>
</linearGradient>
</defs>
</svg>
